<svg width="256" height="256" viewBox="6 6 52 52" fill="none" xmlns="http://www.w3.org/2000/svg" aria-label="FinSim logo"><defs><radialGradient id="a" cx="28%" cy="28%" r="85%"><stop offset="0%" stop-color="#93c5fd"/><stop offset="45%" stop-color="#2563eb"/><stop offset="100%" stop-color="#1e40af"/></radialGradient><clipPath id="b"><circle cx="32" cy="32" r="26"/></clipPath></defs><circle cx="32" cy="32" r="26" fill="url(#a)"/><g clip-path="url(#b)"><path d="M6 45.82c6-.98 12-2.94 18-5.95s11-8.61 15-12.25c1.5 1.54 2.6 4.34 3.5 6.65 3.2-.98 7.2-1.96 15.5-4.27v-2.24c-8 1.96-12 2.94-15.2 3.78-1-2.24-2.2-5.18-3.8-6.86-4 3.78-9 9.52-15 12.6q-9 4.83-18 6.3Z" fill="#ffb44d"/><path d="M6 48.34q9-1.47 18-5.88c6-2.8 11-8.12 15-11.76 1.5 1.54 2.5 4.76 3.3 7.56 3.2-.98 7.2-2.1 15.7-4.9V30c-8.3 2.31-12.3 3.29-15.5 4.27-.9-2.31-2-5.11-3.5-6.65-4 3.64-9 9.24-15 12.25s-12 4.97-18 5.95Z" fill="#f87171"/><path d="M6 49.25c6-.91 12-2.8 18-5.6s11-7.7 15-10.5c1.4 1.61 2.4 4.13 3.2 6.51l15.8-4.9v-1.4c-8.5 2.8-12.5 3.92-15.7 4.9-.8-2.8-1.8-6.02-3.3-7.56-4 3.64-9 8.96-15 11.76q-9 4.41-18 5.88Z" fill="#14b8a6"/><path d="M6 51q9-1.26 18-4.2c6-1.96 11-3.36 15-4.34 1.4 1.61 2.4 4.13 3.2 6.51l15.8-4.9v-9.31l-15.8 4.9c-.8-2.38-1.8-4.9-3.2-6.51-4 2.8-9 7.7-15 10.5s-12 4.69-18 5.6Z" fill="#93c5fd"/><path d="M6 49.74q9-1.26 18-4.2c6-1.96 11-3.36 15-4.34 1.4 1.61 2.4 4.13 3.2 6.51l15.8-4.9V58H6Z" fill="#9ca3af"/></g></svg>